<svg xmlns="http://www.w3.org/2000/svg" width="800" height="240" viewBox="0 0 800 240"><rect width="800" height="240" fill="#102332"/><g font-family="monospace" font-size="15" fill="white"><text x="20" y="28">Translation: center (0,0,0) to (0.319999993, 1.4823612, -5.49551296) m</text><line x1="120" y1="72" x2="640" y2="72" stroke="#596878"/><line x1="380" y1="62" x2="380" y2="82" stroke="white"/><line x1="380" y1="72" x2="395.14" y2="72" stroke="#ff937f" stroke-width="5"/><circle cx="395.14" cy="72" r="6" fill="#ff937f"/><text x="20" y="77">X</text><text x="650" y="77">0.319999993 m</text><line x1="120" y1="130" x2="640" y2="130" stroke="#596878"/><line x1="380" y1="120" x2="380" y2="140" stroke="white"/><line x1="380" y1="130" x2="450.132" y2="130" stroke="#85eb9b" stroke-width="5"/><circle cx="450.132" cy="130" r="6" fill="#85eb9b"/><text x="20" y="135">Y</text><text x="650" y="135">1.4823612 m</text><line x1="120" y1="188" x2="640" y2="188" stroke="#596878"/><line x1="380" y1="178" x2="380" y2="198" stroke="white"/><line x1="380" y1="188" x2="120" y2="188" stroke="#8bbaff" stroke-width="5"/><circle cx="120" cy="188" r="6" fill="#8bbaff"/><text x="20" y="193">Z</text><text x="650" y="193">-5.49551296 m</text><text x="240" y="232">White ticks = 0; all axes share one scale</text></g></svg>